<svg width="1024" height="1024" viewBox="0 0 1024 1024" fill="none" xmlns="http://www.w3.org/2000/svg">
<rect width="1024" height="1024" fill="white"/>
<g filter="url(#filter0_d_1_13)">
<mask id="mask0_1_13" style="mask-type:alpha" maskUnits="userSpaceOnUse" x="195" y="179" width="559" height="314">
<g clip-path="url(#clip0_1_13)">
<path d="M753.576 492.767H195C203.939 398.126 258.057 317.283 337.958 274.005L291.623 193.77C289.008 189.272 290.528 183.558 295.028 180.944C299.528 178.331 305.244 179.85 307.858 184.348L354.802 265.617C390.617 249.266 430.932 240.148 474.288 240.148C517.644 240.148 557.959 249.266 593.774 265.617L640.718 184.348C643.272 179.85 649.048 178.331 653.487 180.944C657.926 183.558 659.507 189.272 656.892 193.77L610.557 274.005C690.519 317.283 744.637 398.126 753.576 492.767ZM602.47 414.355C615.422 414.355 625.942 403.84 625.881 390.953C625.881 378.067 615.422 367.552 602.47 367.552C589.579 367.552 579.059 378.006 579.059 390.953C579.059 403.84 589.518 414.355 602.47 414.355ZM346.045 414.355C358.997 414.355 369.517 403.84 369.456 390.953C369.456 378.067 358.997 367.552 346.045 367.552C333.154 367.552 322.635 378.006 322.635 390.953C322.635 403.84 333.093 414.355 346.045 414.355Z" fill="#3DDC84"/>
</g>
</mask>
<g mask="url(#mask0_1_13)">
<rect x="479.336" y="-18.1045" width="613.637" height="356.415" transform="rotate(44.9753 479.336 -18.1045)" fill="#3DDC84"/>
</g>
</g>
<g filter="url(#filter1_d_1_13)">
<path d="M348.697 449.347L271.216 372L522.822 120.832H677.784" fill="#42A5F5" fill-opacity="0.8"/>
<path d="M677.784 352.594H522.822L464.78 410.535L542.261 487.881" fill="#42A5F5" fill-opacity="0.8"/>
<path d="M464.78 565.228L522.822 623.168H677.784L542.261 487.881" fill="#0D47A1"/>
<path d="M464.839 410.692L387.47 487.927L464.839 565.162L542.209 487.927L464.839 410.692Z" fill="#42A5F5"/>
<path d="M542.209 487.927L464.839 565.162L475.64 575.943L553.009 498.708L542.209 487.927Z" fill="url(#paint0_linear_1_13)"/>
<path d="M464.78 565.228L579.752 525.584L542.261 487.881" fill="url(#paint1_linear_1_13)"/>
</g>
<path d="M131.94 911V707.3C131.94 696.1 133.806 687 137.54 680C141.273 672.767 146.756 667.517 153.99 664.25C161.456 660.75 170.556 659 181.29 659H201.24V684.2H185.84C177.206 684.2 170.906 685.95 166.94 689.45C163.206 692.95 161.34 699.133 161.34 708V911H131.94ZM104.99 759.45V734.6H205.79V759.45H104.99ZM241.14 911V659H270.54V911H241.14Z" fill="#42A5F5"/>
<path d="M394.256 915.2C380.023 915.2 368.123 912.75 358.556 907.85C348.99 902.717 341.873 896.067 337.206 887.9C332.54 879.5 330.206 870.4 330.206 860.6C330.206 848.7 333.24 838.667 339.306 830.5C345.606 822.1 354.356 815.8 365.556 811.6C376.99 807.167 390.406 804.95 405.806 804.95H452.356C452.356 793.983 450.606 784.883 447.106 777.65C443.84 770.183 438.94 764.583 432.406 760.85C426.106 757.117 418.173 755.25 408.606 755.25C397.406 755.25 387.723 758.05 379.556 763.65C371.39 769.25 366.373 777.533 364.506 788.5H334.406C335.806 775.9 340.006 765.4 347.006 757C354.24 748.367 363.34 741.833 374.306 737.4C385.273 732.733 396.706 730.4 408.606 730.4C424.94 730.4 438.473 733.433 449.206 739.5C460.173 745.333 468.34 753.617 473.706 764.35C479.073 774.85 481.756 787.333 481.756 801.8V911H455.506L453.756 879.85C451.423 884.75 448.39 889.417 444.656 893.85C441.156 898.05 436.956 901.783 432.056 905.05C427.156 908.083 421.556 910.533 415.256 912.4C409.19 914.267 402.19 915.2 394.256 915.2ZM398.806 890.35C406.973 890.35 414.323 888.717 420.856 885.45C427.623 881.95 433.34 877.283 438.006 871.45C442.673 865.383 446.173 858.733 448.506 851.5C451.073 844.267 452.356 836.683 452.356 828.75V827.7H408.256C396.823 827.7 387.606 829.1 380.606 831.9C373.606 834.467 368.59 838.2 365.556 843.1C362.523 847.767 361.006 853.133 361.006 859.2C361.006 865.5 362.406 870.983 365.206 875.65C368.24 880.317 372.556 883.933 378.156 886.5C383.99 889.067 390.873 890.35 398.806 890.35ZM588.993 911L522.143 734.6H552.943L606.143 882.65L659.693 734.6H689.793L622.943 911H588.993ZM809.127 915.2C792.093 915.2 777.16 911.233 764.327 903.3C751.493 895.133 741.577 884.05 734.577 870.05C727.577 856.05 724.077 840.183 724.077 822.45C724.077 804.717 727.577 788.967 734.577 775.2C741.577 761.2 751.493 750.233 764.327 742.3C777.393 734.367 792.443 730.4 809.477 730.4C823.943 730.4 836.543 733.317 847.277 739.15C858.243 744.983 866.643 753.15 872.477 763.65V659H901.877V911H875.277L872.827 881.95C869.093 887.783 864.31 893.267 858.477 898.4C852.643 903.3 845.643 907.383 837.477 910.65C829.31 913.683 819.86 915.2 809.127 915.2ZM812.627 889.65C824.293 889.65 834.56 886.85 843.427 881.25C852.293 875.65 859.177 867.95 864.077 858.15C868.977 848.117 871.427 836.333 871.427 822.8C871.427 809.5 868.977 797.833 864.077 787.8C859.177 777.767 852.293 769.95 843.427 764.35C834.56 758.75 824.293 755.95 812.627 755.95C801.193 755.95 791.043 758.75 782.177 764.35C773.31 769.95 766.427 777.767 761.527 787.8C756.627 797.833 754.177 809.5 754.177 822.8C754.177 836.333 756.627 848.117 761.527 858.15C766.427 867.95 773.31 875.65 782.177 881.25C791.043 886.85 801.193 889.65 812.627 889.65Z" fill="#3DDC84"/>
<defs>
<filter id="filter0_d_1_13" x="223.421" y="179.668" width="534.155" height="321.099" filterUnits="userSpaceOnUse" color-interpolation-filters="sRGB">
<feFlood flood-opacity="0" result="BackgroundImageFix"/>
<feColorMatrix in="SourceAlpha" type="matrix" values="0 0 0 0 0 0 0 0 0 0 0 0 0 0 0 0 0 0 127 0" result="hardAlpha"/>
<feOffset dy="4"/>
<feGaussianBlur stdDeviation="2"/>
<feComposite in2="hardAlpha" operator="out"/>
<feColorMatrix type="matrix" values="0 0 0 0 0 0 0 0 0 0 0 0 0 0 0 0 0 0 0.25 0"/>
<feBlend mode="normal" in2="BackgroundImageFix" result="effect1_dropShadow_1_13"/>
<feBlend mode="normal" in="SourceGraphic" in2="effect1_dropShadow_1_13" result="shape"/>
</filter>
<filter id="filter1_d_1_13" x="240" y="92" width="469" height="568" filterUnits="userSpaceOnUse" color-interpolation-filters="sRGB">
<feFlood flood-opacity="0" result="BackgroundImageFix"/>
<feColorMatrix in="SourceAlpha" type="matrix" values="0 0 0 0 0 0 0 0 0 0 0 0 0 0 0 0 0 0 127 0" result="hardAlpha"/>
<feOffset dy="4"/>
<feGaussianBlur stdDeviation="2"/>
<feComposite in2="hardAlpha" operator="out"/>
<feColorMatrix type="matrix" values="0 0 0 0 0 0 0 0 0 0 0 0 0 0 0 0 0 0 0.25 0"/>
<feBlend mode="normal" in2="BackgroundImageFix" result="effect1_dropShadow_1_13"/>
<feBlend mode="normal" in="SourceGraphic" in2="effect1_dropShadow_1_13" result="shape"/>
</filter>
<linearGradient id="paint0_linear_1_13" x1="464.839" y1="565.162" x2="1542.99" y2="1645.19" gradientUnits="userSpaceOnUse">
<stop offset="0.2" stop-opacity="0.15"/>
<stop offset="0.85" stop-color="#616161" stop-opacity="0.01"/>
</linearGradient>
<linearGradient id="paint1_linear_1_13" x1="464.78" y1="487.881" x2="579.752" y2="487.881" gradientUnits="userSpaceOnUse">
<stop offset="0.2" stop-opacity="0.55"/>
<stop offset="0.85" stop-color="#616161" stop-opacity="0.01"/>
</linearGradient>
<clipPath id="clip0_1_13">
<rect width="558.576" height="313.099" fill="white" transform="translate(195 179.668)"/>
</clipPath>
</defs>
</svg>
